<svg xmlns="http://www.w3.org/2000/svg" width="425.189" height="327.568" viewBox="0 0 112.498 86.669" shape-rendering="geometricPrecision" text-rendering="geometricPrecision" image-rendering="optimizeQuality" fill-rule="evenodd" clip-rule="evenodd"><defs><linearGradient id="a" gradientUnits="userSpaceOnUse" x1="75.414" y1="43.335" x2="106.25" y2="43.335"><stop offset="0" stop-color="#007b40"/><stop offset="1" stop-color="#55b330"/></linearGradient><linearGradient id="c" gradientUnits="userSpaceOnUse" x1="40.833" y1="43.335" x2="71.666" y2="43.335"><stop offset="0" stop-color="#6e2b2f"/><stop offset="1" stop-color="#e30138"/></linearGradient><linearGradient id="b" gradientUnits="userSpaceOnUse" x1="6.249" y1="43.335" x2="37.081" y2="43.335"><stop offset="0" stop-color="#1d2970"/><stop offset="1" stop-color="#006dba"/></linearGradient></defs><path d="M112.498 69.17c0 9.663-7.832 17.499-17.498 17.499H0V17.501C0 7.836 7.833.001 17.5.001L112.498 0v69.17z" fill="#fff"/><path d="M81.526 44.854h7.3a4.14 4.14 0 01.242.014 6.687 6.687 0 01.482.054l.073.014.048.011a2.957 2.957 0 01.483.154 3.303 3.303 0 01.723.412 3.246 3.246 0 011.086 1.462 3.467 3.467 0 01.206 1.176 3.486 3.486 0 01-.206 1.18 3.246 3.246 0 01-.724 1.145 3.232 3.232 0 01-1.568.88l-.048.01a1.536 1.536 0 01-.193.033 5.12 5.12 0 01-.483.045 4.487 4.487 0 01-.12.004l-.065.001h-7.236v-6.595zm9.714-7.464a3.316 3.316 0 010 1.405 3.012 3.012 0 01-.362.905 2.923 2.923 0 01-1.448 1.203 3.227 3.227 0 01-.603.171l-.03.005a4.655 4.655 0 01-.453.047 5.141 5.141 0 01-.24.01h-6.578V35.05h6.628l.07.002a5.152 5.152 0 01.362.027 7.072 7.072 0 01.212.024l.03.005a3.026 3.026 0 01.482.127 3.232 3.232 0 01.603.287 2.958 2.958 0 01.965.963 2.867 2.867 0 01.362.905zM106.2 5.834h.05v62.501a12.644 12.644 0 01-.653 3.997 12.799 12.799 0 01-.845 1.94 12.374 12.374 0 01-.603 1 12.48 12.48 0 01-.845 1.122l-.12.142a12.992 12.992 0 01-.362.398l-.12.125c-.041.041-.08.083-.122.123l-.12.118-.12.116a12.8 12.8 0 01-.725.634l-.12.097-.121.094-.12.092-.121.09-.121.087-.12.085-.121.083a3.16 3.16 0 01-.121.08c-.04.028-.08.054-.12.08a11.682 11.682 0 01-.363.226l-.12.071-.12.07-.122.067-.12.067-.12.064c-.041.02-.081.042-.122.063l-.12.06-.12.06-.121.058-.121.056-.12.055-.121.053-.121.052-.12.05-.121.049-.121.046-.12.046-.121.044-.121.043-.12.042-.121.04-.121.038-.12.038-.121.036-.121.035-.12.033-.121.032-.12.03-.122.03-.12.029-.12.026-.122.026-.12.025-.12.023-.121.022-.121.02-.12.02-.121.018-.121.017-.12.017-.121.014-.121.014-.12.012-.121.011c-.04.004-.08.008-.121.01l-.12.01-.121.007-.121.007-.12.005-.121.004-.121.003-.12.002-.121.002H75.415V55.352h19.443l.12-.002.12-.002.122-.003.12-.005.12-.006.122-.007.12-.009.12-.01.122-.01.12-.012.12-.014.121-.014.121-.016.12-.018.121-.018.121-.02.12-.022.121-.023.121-.025.12-.026.121-.028.121-.03a9.242 9.242 0 00.483-.133l.12-.037a7.734 7.734 0 00.362-.125l.12-.045.122-.048c.04-.016.08-.032.12-.05a7.677 7.677 0 00.724-.347 7.353 7.353 0 00.965-.63 6.788 6.788 0 00.483-.417 5.872 5.872 0 00.965-1.203 5.353 5.353 0 00.603-1.458 6.044 6.044 0 00.12-2.216 5.31 5.31 0 00-.36-1.317 4.993 4.993 0 00-.483-.883 5.315 5.315 0 00-.724-.86 5.938 5.938 0 00-.604-.517 7.203 7.203 0 00-1.689-.948l-.12-.048a9.12 9.12 0 00-.121-.047l-.12-.044a10.68 10.68 0 00-.483-.159l-.121-.035-.12-.034a9.275 9.275 0 00-.483-.119 8.869 8.869 0 00-.242-.05l-.12-.023-.12-.022a9.198 9.198 0 00-.122-.02l-.12-.02a9.47 9.47 0 00-.12-.017l-.122-.016-.12-.016-.12-.013-.121-.013-.121-.011-.12-.01-.112-.009v-.144l.111-.018.12-.02.122-.02.12-.024.12-.025.121-.026.121-.028.12-.03a8.487 8.487 0 001.207-.41 6.981 6.981 0 001.207-.679 6.128 6.128 0 00.724-.607 5.793 5.793 0 00.482-.543 5.347 5.347 0 00.845-1.587 5.327 5.327 0 00.241-1.14 5.706 5.706 0 000-1.187 5.553 5.553 0 00-.241-1.158 5.073 5.073 0 00-.483-1.044 5.03 5.03 0 00-.965-1.151 5.826 5.826 0 00-.965-.704 6.772 6.772 0 00-.724-.373 8.259 8.259 0 00-.965-.358l-.12-.036a8.884 8.884 0 00-.242-.066l-.12-.03a8.862 8.862 0 00-.242-.057l-.12-.026-.121-.024-.121-.023-.12-.02c-.04-.008-.081-.014-.121-.02l-.121-.02-.12-.016-.121-.016-.121-.014-.12-.013-.121-.013-.121-.01-.12-.01-.121-.008-.121-.007-.048-.003-.073-.004-.12-.007-.121-.007-.12-.006-.121-.006-.12-.005-.122-.005-.12-.003-.12-.003-.122-.002H75.415V18.335a12.555 12.555 0 01.863-4.574 12.54 12.54 0 011.086-2.132 11.959 11.959 0 01.241-.364l.12-.173a13.199 13.199 0 01.242-.327l.12-.157.121-.15.121-.146.12-.142.121-.137.121-.135a13.396 13.396 0 01.241-.256l.12-.123.122-.12.12-.117.12-.112.122-.111.12-.107a13.38 13.38 0 01.483-.405l.12-.094.121-.093a13.046 13.046 0 01.241-.178l.121-.086.12-.083.121-.082.121-.08.12-.077.121-.076.121-.074.12-.071.121-.071.121-.068.12-.067.121-.064.12-.064.122-.06.12-.06.12-.059.122-.056.12-.056.12-.053.122-.052.12-.05.12-.05.122-.047.12-.046.12-.045.121-.043.121-.042.12-.04.121-.04.121-.037.12-.036.121-.036.121-.033.12-.033.121-.031.121-.03.12-.029.121-.026.12-.027.122-.024.12-.024.12-.023.122-.02.12-.02.12-.02.122-.016.12-.017.12-.014.122-.014.12-.014.12-.01.121-.011.121-.01.12-.007.121-.007.121-.005.12-.005.121-.004.121-.001.12-.002h18.34z" fill="url(#a)"/><path d="M6.508 49.33a40.676 40.676 0 01-.259-.123V18.335a12.553 12.553 0 01.74-4.247 12.55 12.55 0 01.603-1.394 12.042 12.042 0 01.482-.865 12.729 12.729 0 01.361-.557l.12-.174.121-.165.12-.161.12-.157.121-.15a12.006 12.006 0 01.241-.289l.12-.136.121-.135.12-.13a11.994 11.994 0 01.241-.25l.12-.118c.041-.04.08-.08.121-.118l.12-.112c.04-.037.08-.075.121-.111l.12-.107.121-.106.12-.102a11.597 11.597 0 01.603-.474l.12-.088a11.426 11.426 0 01.482-.33l.12-.079.12-.075.121-.074.12-.072.121-.07c.04-.024.08-.046.12-.068l.121-.067.12-.065.12-.063.121-.061.12-.06.121-.059.12-.056.121-.056.12-.053.12-.053.121-.05.12-.049.121-.048.12-.045.121-.046.12-.042c.04-.015.08-.03.121-.043l.12-.04.12-.04.121-.038.12-.035c.04-.012.08-.025.121-.036l.12-.034.121-.032.12-.032.12-.03.121-.029.12-.026.121-.027.12-.025.121-.023.12-.023.121-.021.12-.02.12-.02.121-.016.12-.017.121-.015.12-.014.121-.014.12-.01.121-.011.12-.01.12-.007.121-.008.12-.006.121-.004.12-.005.121-.001.12-.002h18.409v62.502a12.626 12.626 0 01-.463 3.382 12.526 12.526 0 01-1.325 3.064 12.12 12.12 0 01-.482.738 12.24 12.24 0 01-.481.64l-.12.148-.121.143-.12.139-.121.135-.12.13-.121.129a12.736 12.736 0 01-.361.362l-.12.113-.121.113-.12.107-.121.107-.12.102-.121.101-.12.098-.12.096-.121.092-.12.092-.121.088-.12.087-.121.083-.12.084-.12.079-.121.08-.12.074-.121.075-.12.072-.121.071-.12.069a10.881 10.881 0 01-.241.132l-.12.064-.121.062-.12.06-.121.06-.12.056-.121.056-.12.054-.121.052-.12.051-.12.05-.121.049-.12.045-.121.046-.12.043-.121.043-.12.041-.12.04-.121.038-.12.036-.121.036-.12.034c-.04.012-.08.022-.121.033l-.12.033-.121.029-.12.03-.12.027-.121.026-.12.027-.121.023-.12.023-.121.021-.12.02-.12.02c-.04.007-.081.012-.121.018l-.12.016-.121.016-.12.014-.121.014-.12.012-.121.01c-.04.004-.08.008-.12.01-.04.004-.08.006-.12.008l-.121.008-.12.006-.121.005-.12.005-.121.002-.12.001-.112.002H6.249V54.492l.26.067.12.03.12.03.12.029.12.028.121.028.12.028.121.027.12.027.121.026.12.026.12.026.121.025.12.025.121.025.12.024.121.025.12.023.121.024.12.023.12.023.121.022.12.023.121.022.12.021.121.022.12.021.121.02.12.021.12.02.121.02.12.02.121.02.12.02.121.018.12.019.12.018.121.019.12.017.121.018.12.017.121.018.12.016.121.017.12.016.12.016.121.016.12.016.121.015.12.015.121.015.12.014.121.014.12.015.12.013.121.014.12.013.121.013.12.013.121.012.12.012.12.012.121.012.12.011.121.011.12.011.121.01.12.011.121.01.12.01.12.01.121.009.12.009.121.009.12.008.121.009.12.007.12.008.121.008.12.007.121.007.12.006.121.007.12.006.121.006.12.005.12.006.121.005.12.005.121.004.12.004.121.004.12.004.121.003.12.003.12.003.121.003.12.002.121.002.12.002h.121l.12.002h.12l.121.001h.361l.121-.001h.12l.121-.001.12-.003.12-.002.121-.002.12-.002.121-.003.12-.004.121-.004.12-.004.121-.004.12-.005.12-.005.121-.005.12-.006.121-.007.12-.006.121-.007.12-.007.12-.008.121-.01.12-.008.121-.008.12-.01.121-.01.12-.01.121-.011.12-.012.12-.012.121-.012.12-.012.121-.014.12-.014.121-.014.12-.014.12-.016.121-.016.12-.016.121-.016.12-.019.121-.018.12-.018.121-.019.12-.02.12-.02.121-.02.12-.023.121-.023.12-.022.121-.024.12-.024.121-.025.12-.025.12-.028.121-.027.12-.027.121-.03.12-.029.121-.03.12-.031.12-.032.121-.033c.04-.01.08-.022.12-.034l.121-.035.12-.035.121-.037.12-.037.121-.038.12-.04.12-.041.121-.04.12-.045.121-.043.12-.045.121-.047.12-.047.121-.05.12-.05.12-.05.121-.055.12-.054.121-.056.12-.058.121-.058.12-.062.12-.062c.042-.021.081-.043.121-.065a11.398 11.398 0 00.362-.205l.12-.072.12-.075.121-.077.12-.08.12-.081.121-.086.12-.087.121-.09a8.915 8.915 0 00.361-.292l.121-.104.12-.109.12-.111a7.902 7.902 0 00.242-.24l.12-.126c.041-.044.08-.089.12-.134a7.785 7.785 0 00.723-.95 7.71 7.71 0 00.602-1.124 8.405 8.405 0 00.482-1.435 9.838 9.838 0 00.241-1.43c.04-.408.06-.823.06-1.244V31.316H23.76V45.82c0 .227-.01.45-.03.67a6.94 6.94 0 01-.24 1.296 6.152 6.152 0 01-.361.94 5.536 5.536 0 01-.723 1.117 5.436 5.436 0 01-1.325 1.145 5.738 5.738 0 01-.602.327 6.32 6.32 0 01-1.084.4l-.12.032a7.311 7.311 0 01-.603.13l-.12.02-.12.019a8.958 8.958 0 01-.241.031l-.12.014-.121.01c-.04.005-.08.008-.12.011a9.22 9.22 0 01-.242.016l-.12.005-.12.004-.12.003-.121.001h-.241l-.12-.002-.121-.003-.12-.003-.12-.004-.121-.005-.12-.005-.121-.006-.12-.008-.121-.007-.12-.009-.12-.01-.121-.01-.12-.01-.121-.012-.12-.012-.121-.013-.12-.014-.121-.014-.12-.016-.12-.016-.121-.016-.12-.018-.121-.018-.12-.019-.121-.02-.12-.02-.121-.02-.12-.022-.12-.022-.121-.023-.12-.024-.121-.025-.12-.025-.121-.025-.12-.027-.12-.027-.121-.028-.12-.028-.121-.03-.12-.03-.121-.03-.12-.031-.121-.032-.12-.032-.12-.033-.121-.034-.12-.034-.121-.035-.12-.036-.121-.036-.12-.037-.12-.038-.121-.038-.12-.039-.121-.039-.12-.04-.121-.04-.12-.042-.121-.042-.12-.042-.12-.043-.121-.044-.12-.044-.121-.045-.12-.045-.121-.046-.12-.047-.121-.047-.12-.048-.12-.048-.121-.049-.12-.05-.121-.049-.12-.05-.121-.052-.12-.051-.12-.052-.121-.053-.12-.053-.121-.054-.12-.054-.121-.055-.12-.056-.121-.056-.12-.056-.12-.057z" fill="url(#b)"/><path d="M41.091 34.485c-.088.071-.174.143-.258.215V18.335a12.556 12.556 0 01.74-4.246 12.193 12.193 0 011.084-2.259 11.956 11.956 0 01.361-.557l.12-.174.121-.165.12-.16.121-.158.12-.15a12.155 12.155 0 01.241-.288l.12-.137.121-.135a12.271 12.271 0 01.241-.256l.12-.123.121-.119.12-.118.12-.112c.04-.037.08-.075.121-.111l.12-.107.121-.106.12-.102a14.522 14.522 0 01.482-.384 13.017 13.017 0 01.723-.509l.12-.078.121-.075.12-.075.121-.071.12-.071.12-.067.121-.068.12-.064c.04-.021.08-.043.121-.063l.12-.062.121-.06c.04-.02.08-.04.12-.058.04-.02.08-.038.121-.057l.12-.056.12-.052.121-.053.12-.05.121-.05.12-.047.121-.046.12-.046.121-.042.12-.042.12-.04.121-.04.12-.038c.04-.013.081-.024.121-.036l.12-.036.121-.033.12-.033.121-.032.12-.029.12-.03.121-.026.12-.026.121-.026.12-.023.121-.023.12-.02.121-.02.12-.02.12-.017.121-.017.12-.015.121-.014.12-.014.121-.01.12-.011.121-.01.12-.007.12-.008.121-.005.12-.005.121-.005.12-.001.121-.002h18.41v62.502a12.613 12.613 0 01-.464 3.382 12.355 12.355 0 01-1.084 2.645 12.114 12.114 0 01-.481.8l-.12.183a13.079 13.079 0 01-.603.813l-.12.149-.12.142-.121.139-.12.136-.121.13-.12.128a12.454 12.454 0 01-.361.362l-.121.114-.12.112-.121.108-.12.107-.121.102-.12.101-.121.097-.12.096-.12.093-.121.091-.12.088c-.04.03-.08.059-.121.087l-.12.084-.121.083-.12.08-.121.079-.12.075-.12.075-.121.072c-.04.024-.08.048-.12.07l-.121.07-.12.067-.121.065-.12.064-.121.062-.12.06-.12.06-.121.056-.12.056-.121.053-.12.053-.121.051-.12.05-.121.048-.12.046-.121.046-.12.043-.12.043-.121.04-.12.04c-.041.013-.08.027-.121.039l-.12.036-.121.036-.12.034-.121.033-.12.032-.12.03-.121.03-.12.027-.121.026-.12.026c-.04.009-.081.016-.121.024l-.12.023-.121.021-.12.02-.12.02-.121.018-.12.016-.121.016-.12.014-.121.014-.12.012-.121.01c-.04.004-.08.008-.12.01-.04.004-.08.006-.12.008l-.121.008-.12.007-.121.004-.12.005-.121.002-.12.002H40.831v-28.86a11.597 11.597 0 00.5.404l.12.091.121.089a12.362 12.362 0 00.24.171l.121.083.12.08.121.078.12.077.121.075.12.073.121.072.12.07.12.068.121.067.12.065.121.064.12.062.121.061.12.06.121.058.12.058.12.056.121.055.12.053.121.053.12.051.121.05.12.05.12.048.121.047.12.046.121.046.12.044.121.043.12.042.121.042.12.04c.04.014.08.028.12.04l.121.04.12.038.121.037.12.037.121.036.12.035.121.034.12.034.121.032.12.033.12.031.121.03.12.031.121.03.12.028.121.028.12.028.121.027.12.026.12.026.121.025.12.025.121.023.12.024.121.022.12.023.121.022.12.02.12.021.121.02.12.02.121.02.12.018.121.018.12.018.121.017.12.017.12.016.121.016.12.015.121.015.12.015.121.013.12.014.121.013.12.013.12.012.121.012.12.011.121.012.12.01.121.01.12.01.121.01.12.01.12.008.121.008.12.009.121.008.12.007.121.007.12.006.121.006.12.006.12.006.121.005.12.005.121.005.12.004.121.004.12.004.121.003.12.003.12.003.121.002.12.002.121.002.12.001.121.001.12.001h.121l.12.001h.361l.121-.001.12-.001.121-.002.12-.002.121-.001.12-.003.121-.002.12-.003.12-.003.121-.003.12-.003.121-.004.12-.004.121-.004.12-.005.121-.005.12-.005.12-.005.06-.002.061-.003.12-.006.121-.006.12-.007.121-.007.12-.008.121-.008.12-.008.12-.009.121-.009.12-.01.121-.01.12-.01.121-.01.12-.01.121-.012.12-.012.12-.012.121-.012.12-.013.121-.013.12-.013.121-.014.12-.013.121-.015.12-.014.12-.015.121-.015.12-.015.121-.016.12-.016.121-.016.12-.017.121-.017.12-.017.12-.017.121-.018.12-.017.121-.019.12-.018.121-.019.12-.019.121-.019.12-.019.12-.02.121-.02.12-.02.121-.02.12-.02.121-.022.12-.02.121-.022.12-.022.121-.022.12-.022.12-.022.121-.022.12-.023.121-.023.12-.023.121-.024.12-.024.121-.024.12-.024.12-.024.121-.025.12-.025.121-.025.12-.025.121-.026.12-.026.121-.026.12-.026.12-.027.121-.027.12-.027.121-.028.12-.028.121-.028.12-.029.121-.029.12-.03v-5.287l-.12.06-.12.059-.12.059-.121.058-.12.058-.121.058-.12.056-.121.056-.12.056-.121.055-.12.054-.12.054-.121.053-.12.052-.121.052-.12.052-.121.05-.12.05-.121.05-.12.048-.12.048-.121.047-.12.047-.121.046-.12.045-.121.045-.12.044-.121.043-.12.042-.12.042-.121.041-.12.04-.121.04-.12.04-.121.038-.12.038-.121.037-.12.037-.121.035-.12.035-.12.035-.121.033-.12.033-.121.033-.12.031-.121.031-.12.03-.121.03-.12.029-.12.028-.121.027-.12.027-.121.027-.12.025-.121.025-.12.024-.121.024-.12.022-.12.022-.121.022-.12.02-.121.02-.12.02-.121.02-.12.017-.121.018-.12.017-.12.016-.121.016-.12.015-.121.014-.12.014-.121.013-.12.012-.121.012-.12.01-.12.011-.121.01-.073.006-.048.003-.12.008-.12.008-.121.007-.12.006-.121.006-.12.003-.12.004-.121.003-.12.002-.121.001h-.241l-.12-.002-.121-.003-.12-.003-.12-.005-.121-.005-.12-.007-.121-.007-.12-.008-.121-.01-.12-.01c-.041-.003-.08-.008-.121-.012l-.12-.012-.121-.014-.12-.014-.12-.016-.121-.017-.12-.018-.121-.02-.12-.02-.121-.023-.12-.022-.12-.025-.121-.026-.12-.027-.121-.029-.12-.03-.121-.031-.12-.034a10.577 10.577 0 01-.482-.148l-.12-.04-.121-.044-.12-.044-.121-.048-.12-.048c-.041-.016-.081-.034-.121-.051l-.12-.052-.121-.056a10.272 10.272 0 01-.361-.178c-.04-.021-.081-.042-.12-.064l-.121-.067-.12-.07a8.933 8.933 0 01-.242-.148l-.12-.078-.12-.082a7.436 7.436 0 01-.12-.085c-.041-.03-.082-.058-.121-.088-.041-.03-.08-.062-.12-.093a8.053 8.053 0 01-.121-.097c-.04-.033-.081-.066-.12-.1a7.171 7.171 0 01-.362-.33l-.12-.12a6.886 6.886 0 01-.362-.401 7.43 7.43 0 01-.602-.832 7.396 7.396 0 01-.482-.913 8.084 8.084 0 01-.482-1.417 10.374 10.374 0 01-.24-1.455 11.726 11.726 0 01.12-3.049 9.515 9.515 0 01.24-1.011 8.688 8.688 0 01.362-.977 7.777 7.777 0 01.602-1.1 7.37 7.37 0 01.843-1.046 7.165 7.165 0 01.362-.345l.12-.106.12-.1a8.06 8.06 0 01.483-.363l.12-.082.12-.078a7.388 7.388 0 01.241-.148l.12-.07.121-.067.12-.064a9.078 9.078 0 01.362-.178c.04-.02.08-.038.12-.056l.12-.052.121-.052.12-.048.121-.047.12-.044.121-.044.12-.04a10.624 10.624 0 01.362-.114l.12-.035.12-.033.121-.031.12-.03.121-.03.12-.027.121-.025.12-.025.12-.023.121-.022c.04-.008.08-.014.12-.02l.121-.02.12-.018.121-.017.12-.016.121-.015.12-.014.12-.012.121-.012.12-.01.121-.01.12-.008.121-.007.12-.007.121-.005.12-.005.121-.003.12-.002.12-.002h.362l.12.002.121.003.12.004.121.004.12.005.12.007.121.006.12.008.121.008.048.003.073.006.12.01.12.01.121.011.12.012.12.012.121.013.12.013.121.014.12.015.121.015.12.016.121.017.12.017.12.018.121.019.12.02.121.02.12.02.121.021.12.022.121.023.12.023.12.024.121.024.12.026.121.026.12.026.121.028.12.028.121.028.12.03.12.03.121.03.12.032.121.032.12.033.121.034.12.034.121.035.12.036.12.036.121.037.12.038.121.038.12.04.121.04.12.04.121.041.12.042.121.043.12.043.12.044.121.045.12.045.121.047.12.046.121.048.12.048.121.049.12.05.12.05.121.05.12.052.121.053.12.053.121.053.12.054.121.055.12.055.12.056.121.057.12.057.121.058.12.058.121.06.12.059.121.06.12.06v-5.291l-.12-.03-.12-.029-.12-.029-.121-.028-.12-.028-.121-.027-.12-.028-.121-.027-.12-.026-.121-.027-.12-.026-.12-.026-.121-.025-.12-.026-.121-.025-.12-.025-.121-.024-.12-.025-.121-.024-.12-.024-.12-.023-.121-.024-.12-.023-.121-.023-.12-.023-.121-.022-.12-.023-.121-.022-.12-.022-.12-.021-.121-.021-.12-.022-.121-.02-.12-.021-.121-.02-.12-.02-.121-.02-.12-.02-.121-.02-.12-.018-.12-.02-.121-.018-.12-.018-.121-.018-.12-.018-.121-.018-.12-.017-.121-.017-.12-.017-.12-.016-.121-.016-.12-.016-.121-.016-.12-.015-.121-.015-.12-.015-.121-.015-.12-.014-.12-.014-.121-.013-.12-.013-.121-.013-.12-.013-.121-.012-.12-.012-.121-.012-.12-.011-.12-.01-.121-.011-.12-.01-.121-.01-.12-.01-.121-.009-.12-.009-.121-.008-.12-.008-.12-.007-.121-.007-.12-.007-.121-.006-.12-.006-.062-.003-.06-.002-.12-.005-.12-.005-.12-.005-.12-.005-.121-.004-.12-.004-.121-.004-.12-.003-.121-.003-.12-.003-.121-.003-.12-.002-.12-.003-.121-.001-.12-.002-.121-.002h-.12l-.121-.001h-.12l-.121-.001h-.361l-.12.002h-.121l-.12.002-.121.002-.12.002-.121.002-.12.003-.12.003-.121.003-.12.004-.121.004-.12.004-.121.005-.12.005-.121.005-.12.006-.12.006-.121.006-.12.007-.121.007-.12.007-.121.008-.12.008-.121.008-.12.01-.121.008-.12.01-.12.01-.121.01-.12.01-.121.012-.12.011-.121.012-.12.013-.121.012-.12.014-.12.013-.121.014-.12.015-.121.014-.12.016-.121.016-.12.016-.121.017-.12.017-.12.017-.121.019-.12.018-.121.02-.12.02-.121.02-.12.02-.121.021-.12.022-.12.022-.121.023-.12.024-.121.023-.12.025-.121.025-.12.026-.121.026-.12.027-.12.028-.121.027-.12.03-.121.029-.12.03-.121.03-.12.032-.121.033-.12.032-.12.034-.121.034-.12.036-.121.035-.12.037-.121.037-.12.039-.121.038-.12.04-.12.04-.121.043-.12.042-.121.044-.12.044-.121.045-.12.046-.121.048-.12.048-.121.05-.12.05-.12.05-.121.054-.12.053-.121.055-.12.056-.121.057-.12.059-.12.06-.121.06-.12.063c-.041.02-.081.043-.121.064l-.12.065-.121.067-.12.069-.121.069a14.155 14.155 0 00-.24.145l-.121.075-.12.077-.121.078-.12.08-.121.083a14.197 14.197 0 00-.241.172l-.12.088a12.694 12.694 0 00-.362.282z" fill="url(#c)"/></svg>